# Blender 4.4.0
# www.blender.org
o chair4
v -0.089050 0.610122 0.301324
v 0.511906 0.610122 0.295801
v -0.095482 0.553734 0.283882
v 0.505751 0.553734 0.278357
v -0.137326 0.610122 0.301767
v -0.131216 0.553734 0.284210
v -0.131964 1.396692 0.301719
v -0.180240 1.396692 0.302162
v 0.457470 0.610122 0.296301
v 0.463304 0.553734 0.278746
v -0.089834 0.610122 0.216076
v 0.511123 0.610122 0.210552
v -0.095944 0.553734 0.233633
v 0.505289 0.553734 0.228107
v -0.138109 0.610122 0.216519
v -0.131678 0.553734 0.233961
v -0.132748 1.396692 0.216470
v -0.181023 1.396692 0.216913
v 0.462842 0.553734 0.228498
v 0.456687 0.610122 0.211053
v -0.089834 0.553734 0.216076
v -0.089050 0.553734 0.301324
v 0.457470 0.553734 0.296301
v 0.511906 0.553734 0.295801
v -0.138109 0.553734 0.216519
v -0.137326 0.553734 0.301767
v 0.511123 0.553734 0.210552
v 0.456687 0.553734 0.211053
v -0.095944 0.002726 0.233633
v -0.095482 0.002726 0.283882
v 0.463304 0.002726 0.278746
v 0.505751 0.002726 0.278357
v -0.131678 0.002726 0.233961
v -0.131216 0.002726 0.284210
v 0.505289 0.002726 0.228108
v 0.462842 0.002726 0.228498
v -0.131964 1.301239 0.301719
v -0.180240 1.301239 0.302162
v -0.181023 1.301239 0.216913
v -0.132748 1.301239 0.216470
v -0.137326 0.667435 0.301767
v -0.089050 0.667435 0.301324
v -0.138109 0.667435 0.216519
v -0.089834 0.667435 0.216076
v -0.112158 1.008713 0.301537
v -0.115459 1.057467 0.301567
v -0.118760 1.106222 0.301598
v -0.122061 1.154976 0.301627
v -0.125362 1.203730 0.301658
v -0.128663 1.252484 0.301688
v -0.176939 1.252484 0.302132
v -0.173637 1.203730 0.302101
v -0.170337 1.154976 0.302070
v -0.167036 1.106222 0.302041
v -0.163735 1.057467 0.302011
v -0.160433 1.008713 0.301980
v -0.112941 1.008713 0.216287
v -0.116243 1.057467 0.216318
v -0.119544 1.106222 0.216349
v -0.122845 1.154976 0.216379
v -0.126146 1.203730 0.216409
v -0.129447 1.252484 0.216439
v -0.161217 1.008713 0.216731
v -0.164518 1.057467 0.216762
v -0.167819 1.106222 0.216792
v -0.171120 1.154976 0.216824
v -0.174421 1.203730 0.216853
v -0.177722 1.252484 0.216883
v -0.094574 0.610122 -0.299633
v 0.506383 0.610122 -0.305156
v -0.100684 0.553734 -0.282075
v 0.500550 0.553734 -0.287600
v -0.142849 0.610122 -0.299190
v -0.136417 0.553734 -0.281747
v -0.137488 1.396692 -0.299238
v -0.185763 1.396692 -0.298795
v 0.451947 0.610122 -0.304655
v 0.458103 0.553734 -0.287210
v -0.093790 0.610122 -0.214384
v 0.507167 0.610122 -0.219908
v -0.100222 0.553734 -0.231827
v 0.501012 0.553734 -0.237351
v -0.142066 0.610122 -0.213941
v -0.135955 0.553734 -0.231498
v -0.136704 1.396692 -0.213990
v -0.184980 1.396692 -0.213547
v 0.458564 0.553734 -0.236962
v 0.452731 0.610122 -0.219407
v -0.091812 0.610122 0.000846
v -0.091812 0.553734 0.000846
v -0.140087 0.610122 0.001289
v -0.140087 0.553734 0.001289
v -0.134726 1.396692 0.001240
v -0.183001 1.396692 0.001683
v 0.454709 0.610122 -0.004177
v 0.509145 0.610122 -0.004678
v 0.509145 0.553734 -0.004678
v 0.454709 0.553734 -0.004177
v -0.093790 0.553734 -0.214384
v -0.094574 0.553734 -0.299633
v 0.451947 0.553734 -0.304655
v 0.506383 0.553734 -0.305156
v -0.142066 0.553734 -0.213941
v -0.142849 0.553734 -0.299190
v 0.507167 0.553734 -0.219908
v 0.452731 0.553734 -0.219407
v -0.100222 0.002726 -0.231827
v -0.100684 0.002726 -0.282075
v 0.458103 0.002726 -0.287210
v 0.500550 0.002726 -0.287600
v -0.135955 0.002726 -0.231498
v -0.136417 0.002726 -0.281747
v 0.501012 0.002726 -0.237351
v 0.458564 0.002726 -0.236962
v -0.137488 1.301239 -0.299238
v -0.185763 1.301239 -0.298795
v -0.184980 1.301239 -0.213547
v -0.136704 1.301239 -0.213990
v -0.183001 1.301239 0.001683
v -0.134726 1.301239 0.001240
v -0.142849 0.667435 -0.299190
v -0.094574 0.667435 -0.299633
v -0.142066 0.667435 -0.213941
v -0.093790 0.667435 -0.214384
v -0.140087 0.667435 0.001289
v -0.091812 0.667435 0.000846
v -0.117681 1.008713 -0.299419
v -0.120982 1.057467 -0.299390
v -0.124283 1.106222 -0.299360
v -0.127584 1.154976 -0.299330
v -0.130885 1.203730 -0.299299
v -0.134186 1.252484 -0.299269
v -0.182462 1.252484 -0.298825
v -0.179161 1.203730 -0.298856
v -0.175860 1.154976 -0.298885
v -0.172558 1.106222 -0.298916
v -0.169257 1.057467 -0.298947
v -0.165956 1.008713 -0.298977
v -0.116898 1.008713 -0.214171
v -0.120198 1.057467 -0.214142
v -0.123499 1.106222 -0.214111
v -0.126801 1.154976 -0.214081
v -0.130102 1.203730 -0.214050
v -0.133403 1.252484 -0.214021
v -0.165173 1.008713 -0.213728
v -0.168474 1.057467 -0.213699
v -0.171775 1.106222 -0.213668
v -0.175076 1.154976 -0.213637
v -0.178377 1.203730 -0.213607
v -0.181678 1.252484 -0.213576
v -0.128124 1.203730 0.001180
v -0.131425 1.252484 0.001209
v -0.176399 1.203730 0.001623
v -0.179700 1.252484 0.001654
v -0.121522 1.106222 0.001119
v -0.124823 1.154976 0.001149
v -0.169797 1.106222 0.001562
v -0.173098 1.154976 0.001594
v -0.114920 1.008713 0.001059
v -0.118220 1.057467 0.001088
v -0.163195 1.008713 0.001502
v -0.166496 1.057467 0.001531
vn -0.0000 1.0000 -0.0000
vn -0.0092 -0.0000 -1.0000
vn 0.0092 -0.0000 1.0000
vn -1.0000 -0.0000 0.0092
vn 1.0000 -0.0000 -0.0092
vn -0.0000 -1.0000 -0.0000
vn 0.9977 0.0676 -0.0092
vn 0.9977 0.0675 -0.0092
vn -0.9977 -0.0676 0.0092
vn -0.9977 -0.0675 0.0092
vt 0.374452 0.438608
vt 0.337636 0.438608
vt 0.337636 0.415099
vt 0.374452 0.415099
vt 0.382366 0.935601
vt 0.382366 0.697655
vt 0.400697 0.697655
vt 0.400697 0.935601
vt 0.270615 0.352884
vt 0.291428 0.351689
vt 0.292824 0.375999
vt 0.272010 0.377194
vt 0.034985 0.366411
vt 0.036380 0.390722
vt 0.012911 0.392070
vt 0.011515 0.367759
vt 0.234226 0.439433
vt 0.234226 0.415099
vt 0.271041 0.415099
vt 0.271041 0.439433
vt 0.657007 0.310450
vt 0.657007 0.351641
vt 0.620192 0.351641
vt 0.620192 0.310450
vt 0.923596 0.330886
vt 0.902748 0.330886
vt 0.902748 0.294071
vt 0.923596 0.294071
vt 0.272010 0.053863
vt 0.269648 0.012710
vt 0.290461 0.011515
vt 0.292824 0.052668
vt 0.842904 0.634197
vt 0.842904 0.398180
vt 0.879719 0.398180
vt 0.879719 0.634197
vt 0.374452 0.674626
vt 0.337636 0.674626
vt 0.467400 0.674626
vt 0.467400 0.438608
vt 0.749956 0.634197
vt 0.749956 0.398180
vt 0.271041 0.738368
vt 0.271041 0.779559
vt 0.234226 0.779559
vt 0.234226 0.738368
vt 0.923596 0.423834
vt 0.902748 0.423834
vt 0.749956 0.310450
vt 0.749956 0.351641
vt 0.664922 0.915853
vt 0.664922 0.678075
vt 0.686623 0.678075
vt 0.686623 0.915853
vt 0.141278 0.439433
vt 0.141278 0.415099
vt 0.902749 0.011515
vt 0.927082 0.011515
vt 0.927082 0.048330
vt 0.902749 0.048330
vt 0.749956 0.374671
vt 0.842904 0.374671
vt 0.467400 0.415099
vt 0.850461 0.636905
vt 0.872161 0.636905
vt 0.872161 0.377260
vt 0.879719 0.374671
vt 0.872161 0.395591
vt 0.872161 0.652337
vt 0.879719 0.655045
vt 0.842904 0.655045
vt 0.850461 0.652337
vt 0.850461 0.377260
vt 0.850461 0.395591
vt 0.664023 0.938882
vt 0.682353 0.938882
vt 0.682353 0.960582
vt 0.664023 0.960582
vt 0.762176 0.960582
vt 0.746744 0.960582
vt 0.746744 0.938882
vt 0.762176 0.938882
vt 0.754382 0.915853
vt 0.754382 0.678075
vt 0.776083 0.678075
vt 0.776082 0.915853
vt 0.465088 0.935601
vt 0.465088 0.697655
vt 0.480520 0.697655
vt 0.480520 0.935601
vt 0.296276 0.914020
vt 0.296276 0.676075
vt 0.314607 0.676075
vt 0.314607 0.914020
vt 0.580472 0.935601
vt 0.580472 0.697655
vt 0.595904 0.697655
vt 0.595904 0.935601
vt 0.843842 0.915853
vt 0.843842 0.678075
vt 0.865542 0.678075
vt 0.865542 0.915853
vt 0.888572 0.915853
vt 0.888572 0.678075
vt 0.910272 0.678075
vt 0.910272 0.915853
vt 0.657007 0.011515
vt 0.657007 0.036247
vt 0.620192 0.036247
vt 0.620192 0.011515
vt 0.269196 0.328175
vt 0.290010 0.326980
vt 0.271041 0.464165
vt 0.234226 0.464165
vt 0.749956 0.011515
vt 0.749956 0.036247
vt 0.141278 0.464165
vt 0.141278 0.779559
vt 0.141278 0.738368
vt 0.749956 0.655045
vt 0.927082 0.141278
vt 0.902749 0.141278
vt 0.055393 0.895537
vt 0.076241 0.895537
vt 0.076241 0.988485
vt 0.055393 0.988485
vt 0.251704 0.951712
vt 0.230904 0.950303
vt 0.230904 0.802589
vt 0.251704 0.803997
vt 0.187026 0.895537
vt 0.187026 0.802589
vt 0.207874 0.802589
vt 0.207874 0.895537
vt 0.657007 0.289357
vt 0.620192 0.289357
vt 0.271794 0.074963
vt 0.292607 0.073768
vt 0.271041 0.717275
vt 0.234226 0.717275
vt 0.271041 0.611813
vt 0.234226 0.611813
vt 0.271041 0.632905
vt 0.234226 0.632905
vt 0.271041 0.653998
vt 0.234226 0.653998
vt 0.271041 0.675090
vt 0.234226 0.675090
vt 0.271041 0.696183
vt 0.234226 0.696183
vt 0.270711 0.180468
vt 0.291525 0.179273
vt 0.270928 0.159367
vt 0.291741 0.158172
vt 0.271144 0.138266
vt 0.291958 0.137071
vt 0.271361 0.117165
vt 0.292174 0.115970
vt 0.271577 0.096064
vt 0.292391 0.094869
vt 0.657007 0.183895
vt 0.620192 0.183895
vt 0.657007 0.204987
vt 0.620192 0.204987
vt 0.657007 0.226080
vt 0.620192 0.226080
vt 0.657007 0.247172
vt 0.620192 0.247172
vt 0.657007 0.268265
vt 0.620192 0.268265
vt 0.923549 0.599138
vt 0.902748 0.597729
vt 0.902749 0.576627
vt 0.923549 0.578035
vt 0.749956 0.268265
vt 0.749956 0.289357
vt 0.954103 0.909511
vt 0.933302 0.908103
vt 0.933302 0.887001
vt 0.954103 0.888409
vt 0.749956 0.226080
vt 0.749956 0.247172
vt 0.314607 0.959560
vt 0.293806 0.958152
vt 0.293806 0.937050
vt 0.314607 0.938458
vt 0.954150 0.678075
vt 0.954150 0.771023
vt 0.933302 0.771023
vt 0.933302 0.678075
vt 0.163996 0.802589
vt 0.163996 0.895537
vt 0.143148 0.895537
vt 0.143148 0.802589
vt 0.141278 0.717275
vt 0.141278 0.696183
vt 0.099270 0.988485
vt 0.099270 0.895537
vt 0.120118 0.895537
vt 0.120118 0.988485
vt 0.967474 0.294071
vt 0.967474 0.387019
vt 0.946626 0.387019
vt 0.946626 0.294071
vt 0.141278 0.675090
vt 0.141278 0.653998
vt 0.950112 0.197411
vt 0.950112 0.104463
vt 0.970960 0.104463
vt 0.970960 0.197411
vt 0.749956 0.183895
vt 0.749956 0.204987
vt 0.011515 0.988485
vt 0.011515 0.895537
vt 0.032363 0.895537
vt 0.032363 0.988485
vt 0.141278 0.632905
vt 0.141278 0.611813
vt 0.560348 0.438608
vt 0.560348 0.415099
vt 0.597163 0.415099
vt 0.597163 0.438608
vt 0.314607 0.653045
vt 0.296276 0.653045
vt 0.296276 0.415099
vt 0.314607 0.415099
vt 0.574953 0.050701
vt 0.576349 0.026390
vt 0.597163 0.027585
vt 0.595767 0.051896
vt 0.339324 0.037173
vt 0.315854 0.035826
vt 0.317249 0.011515
vt 0.340719 0.012862
vt 0.048330 0.439433
vt 0.011515 0.439433
vt 0.011515 0.415099
vt 0.048330 0.415099
vt 0.842904 0.310450
vt 0.879719 0.310450
vt 0.879719 0.351641
vt 0.842904 0.351641
vt 0.923596 0.516782
vt 0.923596 0.553597
vt 0.902748 0.553597
vt 0.902748 0.516782
vt 0.576349 0.349722
vt 0.597163 0.350917
vt 0.594800 0.392070
vt 0.573986 0.390875
vt 0.657008 0.634197
vt 0.620193 0.634197
vt 0.620193 0.398180
vt 0.657008 0.398180
vt 0.560348 0.674626
vt 0.597163 0.674626
vt 0.011515 0.738368
vt 0.048330 0.738368
vt 0.048330 0.779559
vt 0.011515 0.779559
vt 0.359337 0.935433
vt 0.337636 0.935433
vt 0.337636 0.697655
vt 0.359337 0.697655
vt 0.902749 0.271041
vt 0.902749 0.234226
vt 0.927082 0.234226
vt 0.927082 0.271041
vt 0.657008 0.374671
vt 0.649450 0.636905
vt 0.627750 0.636905
vt 0.627750 0.377260
vt 0.627750 0.395591
vt 0.620193 0.374671
vt 0.627750 0.652337
vt 0.649450 0.652337
vt 0.657007 0.655045
vt 0.620193 0.655045
vt 0.649450 0.377260
vt 0.649450 0.395591
vt 0.705383 0.960583
vt 0.705383 0.938882
vt 0.723714 0.938882
vt 0.723714 0.960583
vt 0.800637 0.938882
vt 0.800637 0.960583
vt 0.785205 0.960583
vt 0.785205 0.938882
vt 0.731353 0.915853
vt 0.709652 0.915853
vt 0.709652 0.678075
vt 0.731353 0.678075
vt 0.518981 0.935601
vt 0.503549 0.935601
vt 0.503549 0.697655
vt 0.518981 0.697655
vt 0.442058 0.935601
vt 0.423727 0.935601
vt 0.423727 0.697655
vt 0.442058 0.697655
vt 0.557442 0.935601
vt 0.542011 0.935601
vt 0.542011 0.697655
vt 0.557442 0.697655
vt 0.820812 0.915853
vt 0.799112 0.915853
vt 0.799112 0.678075
vt 0.820812 0.678075
vt 0.641893 0.915853
vt 0.620192 0.915853
vt 0.620192 0.678075
vt 0.641893 0.678075
vt 0.842904 0.011515
vt 0.879719 0.011515
vt 0.879719 0.036247
vt 0.842904 0.036247
vt 0.594348 0.076605
vt 0.573535 0.075410
vt 0.048330 0.464165
vt 0.011515 0.464165
vt 0.055393 0.802589
vt 0.076241 0.802589
vt 0.946626 0.652120
vt 0.946626 0.504405
vt 0.967427 0.502997
vt 0.967427 0.650711
vt 0.207874 0.988485
vt 0.187026 0.988485
vt 0.842904 0.289357
vt 0.879719 0.289357
vt 0.576133 0.328621
vt 0.596946 0.329816
vt 0.011515 0.717275
vt 0.048330 0.717275
vt 0.048330 0.611813
vt 0.011515 0.611813
vt 0.048330 0.632905
vt 0.011515 0.632905
vt 0.048330 0.653998
vt 0.011515 0.653998
vt 0.048330 0.675090
vt 0.011515 0.675090
vt 0.048330 0.696183
vt 0.011515 0.696183
vt 0.595864 0.224311
vt 0.575050 0.223116
vt 0.596080 0.245412
vt 0.575267 0.244217
vt 0.596297 0.266513
vt 0.575483 0.265318
vt 0.596513 0.287614
vt 0.575700 0.286419
vt 0.596730 0.308715
vt 0.575916 0.307520
vt 0.879719 0.183895
vt 0.842904 0.183895
vt 0.879719 0.204987
vt 0.842904 0.204987
vt 0.879719 0.226080
vt 0.842904 0.226080
vt 0.879719 0.247172
vt 0.842904 0.247172
vt 0.879719 0.268265
vt 0.842904 0.268265
vt 0.902748 0.644678
vt 0.902748 0.623575
vt 0.923549 0.622167
vt 0.923549 0.643269
vt 0.933302 0.955052
vt 0.933302 0.933950
vt 0.954103 0.932541
vt 0.954103 0.953643
vt 0.620192 0.961393
vt 0.620192 0.940291
vt 0.640993 0.938882
vt 0.640993 0.959984
vt 0.954150 0.863971
vt 0.933302 0.863971
vt 0.163996 0.988485
vt 0.143148 0.988485
vt 0.099270 0.802589
vt 0.120118 0.802589
vt 0.967474 0.479967
vt 0.946626 0.479967
vt 0.950112 0.011515
vt 0.970960 0.011515
vt 0.011515 0.802589
vt 0.032363 0.802589
s 1
f 20/1/1 9/2/1 2/3/1 12/4/1
f 14/5/2 35/6/2 36/7/2 19/8/2
f 1/9/3 5/10/3 26/11/3 22/12/3
f 9/13/3 23/14/3 24/15/3 2/16/3
f 15/17/4 25/18/4 26/19/4 5/20/4
f 40/21/5 17/22/5 7/23/5 37/24/5
f 17/25/1 18/26/1 8/27/1 7/28/1
f 37/29/3 7/30/3 8/31/3 38/32/3
f 1/9/3 22/12/3 23/14/3 9/13/3
f 21/33/6 28/34/6 23/35/6 22/36/6
f 11/37/1 1/38/1 9/2/1 20/1/1
f 89/39/1 11/37/1 20/1/1 95/40/1
f 90/41/6 98/42/6 28/34/6 21/33/6
f 38/43/4 8/44/4 18/45/4 39/46/4
f 93/47/1 94/48/1 18/26/1 17/25/1
f 120/49/5 93/50/5 17/22/5 40/21/5
f 3/51/5 30/52/5 29/53/5 13/54/5
f 91/55/4 92/56/4 25/18/4 15/17/4
f 2/57/5 24/58/5 27/59/5 12/60/5
f 98/42/6 97/61/6 27/62/6 28/34/6
f 95/40/1 20/1/1 12/4/1 96/63/1
f 13/64/6 21/33/6 22/36/6 3/65/6
f 4/66/6 24/67/6 23/35/6 10/68/6
f 6/69/6 26/70/6 25/71/6 16/72/6
f 3/65/6 22/36/6 26/70/6 6/69/6
f 14/73/6 27/62/6 24/67/6 4/66/6
f 10/68/6 23/35/6 28/34/6 19/74/6
f 16/72/6 25/71/6 21/33/6 13/64/6
f 19/74/6 28/34/6 27/62/6 14/73/6
f 36/75/6 35/76/6 32/77/6 31/78/6
f 30/79/6 34/80/6 33/81/6 29/82/6
f 19/83/4 36/84/4 31/85/4 10/86/4
f 6/87/3 34/88/3 30/89/3 3/90/3
f 10/91/3 31/92/3 32/93/3 4/94/3
f 13/95/2 29/96/2 33/97/2 16/98/2
f 4/99/5 32/100/5 35/101/5 14/102/5
f 16/103/4 33/104/4 34/105/4 6/106/4
f 11/107/5 44/108/5 42/109/5 1/110/5
f 1/9/3 42/111/3 41/112/3 5/10/3
f 5/20/4 41/113/4 43/114/4 15/17/4
f 89/115/5 126/116/5 44/108/5 11/107/5
f 15/17/4 43/114/4 125/117/4 91/55/4
f 39/46/4 18/45/4 94/118/4 119/119/4
f 21/33/6 25/71/6 92/120/6 90/41/6
f 12/60/5 27/59/5 97/121/5 96/122/5
f 119/123/6 120/124/6 40/125/6 39/126/6
f 63/127/2 57/128/2 44/129/2 43/130/2
f 125/131/1 43/132/1 44/133/1 126/134/1
f 62/135/7 40/21/8 37/24/8 50/136/7
f 50/137/3 37/29/3 38/32/3 51/138/3
f 51/139/9 38/43/9 39/46/9 68/140/9
f 41/113/9 56/141/9 63/142/9 43/114/9
f 56/141/9 55/143/9 64/144/9 63/142/9
f 55/143/9 54/145/9 65/146/9 64/144/9
f 54/145/9 53/147/10 66/148/10 65/146/9
f 53/147/10 52/149/9 67/150/9 66/148/10
f 52/149/9 51/139/9 68/140/9 67/150/9
f 42/111/3 45/151/3 56/152/3 41/112/3
f 45/151/3 46/153/3 55/154/3 56/152/3
f 46/153/3 47/155/3 54/156/3 55/154/3
f 47/155/3 48/157/3 53/158/3 54/156/3
f 48/157/3 49/159/3 52/160/3 53/158/3
f 49/159/3 50/137/3 51/138/3 52/160/3
f 44/108/7 57/161/7 45/162/7 42/109/7
f 57/161/7 58/163/7 46/164/7 45/162/7
f 58/163/7 59/165/7 47/166/7 46/164/7
f 59/165/7 60/167/7 48/168/7 47/166/7
f 60/167/7 61/169/7 49/170/7 48/168/7
f 61/169/7 62/135/7 50/136/7 49/170/7
f 39/171/2 40/172/2 62/173/2 68/174/2
f 61/169/7 151/175/7 152/176/7 62/135/7
f 67/177/2 61/178/2 60/179/2 66/180/2
f 59/165/7 155/181/7 156/182/7 60/167/7
f 65/183/2 59/184/2 58/185/2 64/186/2
f 58/187/1 160/188/1 162/189/1 64/190/1
f 62/191/1 152/192/1 154/193/1 68/194/1
f 68/140/9 154/195/9 153/196/9 67/150/9
f 67/197/6 153/198/6 151/199/6 61/200/6
f 60/201/1 156/202/1 158/203/1 66/204/1
f 66/148/10 158/205/9 157/206/9 65/146/9
f 65/207/6 157/208/6 155/209/6 59/210/6
f 57/161/7 159/211/8 160/212/8 58/163/7
f 63/213/6 161/214/6 159/215/6 57/216/6
f 64/144/9 162/217/9 161/218/9 63/142/9
f 88/219/1 80/220/1 70/221/1 77/222/1
f 82/223/3 87/224/3 114/225/3 113/226/3
f 69/227/2 100/228/2 104/229/2 73/230/2
f 77/231/2 70/232/2 102/233/2 101/234/2
f 83/235/4 73/236/4 104/237/4 103/238/4
f 118/239/5 115/240/5 75/241/5 85/242/5
f 85/243/1 75/244/1 76/245/1 86/246/1
f 115/247/2 116/248/2 76/249/2 75/250/2
f 69/227/2 77/231/2 101/234/2 100/228/2
f 99/251/6 100/252/6 101/253/6 106/254/6
f 79/255/1 88/219/1 77/222/1 69/256/1
f 89/39/1 95/40/1 88/219/1 79/255/1
f 90/41/6 99/251/6 106/254/6 98/42/6
f 116/257/4 117/258/4 86/259/4 76/260/4
f 93/47/1 85/243/1 86/246/1 94/48/1
f 120/49/5 118/239/5 85/242/5 93/50/5
f 71/261/5 81/262/5 107/263/5 108/264/5
f 91/55/4 83/235/4 103/238/4 92/56/4
f 70/265/5 80/266/5 105/267/5 102/268/5
f 98/42/6 106/254/6 105/269/6 97/61/6
f 95/40/1 96/63/1 80/220/1 88/219/1
f 81/270/6 71/271/6 100/252/6 99/251/6
f 72/272/6 78/273/6 101/253/6 102/274/6
f 74/275/6 84/276/6 103/277/6 104/278/6
f 71/271/6 74/275/6 104/278/6 100/252/6
f 82/279/6 72/272/6 102/274/6 105/269/6
f 78/273/6 87/280/6 106/254/6 101/253/6
f 84/276/6 81/270/6 99/251/6 103/277/6
f 87/280/6 82/279/6 105/269/6 106/254/6
f 114/281/6 109/282/6 110/283/6 113/284/6
f 108/285/6 107/286/6 111/287/6 112/288/6
f 87/289/4 78/290/4 109/291/4 114/292/4
f 74/293/2 71/294/2 108/295/2 112/296/2
f 78/297/2 72/298/2 110/299/2 109/300/2
f 81/301/3 84/302/3 111/303/3 107/304/3
f 72/305/5 82/306/5 113/307/5 110/308/5
f 84/309/4 74/310/4 112/311/4 111/312/4
f 79/313/5 69/314/5 122/315/5 124/316/5
f 69/227/2 73/230/2 121/317/2 122/318/2
f 73/236/4 83/235/4 123/319/4 121/320/4
f 89/115/5 79/313/5 124/316/5 126/116/5
f 83/235/4 91/55/4 125/117/4 123/319/4
f 117/258/4 119/119/4 94/118/4 86/259/4
f 99/251/6 90/41/6 92/120/6 103/277/6
f 80/266/5 96/122/5 97/121/5 105/267/5
f 119/123/6 117/321/6 118/322/6 120/124/6
f 145/323/3 123/324/3 124/325/3 139/326/3
f 125/131/1 126/134/1 124/327/1 123/328/1
f 144/329/7 132/330/7 115/240/7 118/239/7
f 132/331/2 133/332/2 116/248/2 115/247/2
f 133/333/9 150/334/9 117/258/9 116/257/9
f 121/320/9 123/319/9 145/335/10 138/336/10
f 138/336/10 145/335/10 146/337/10 137/338/9
f 137/338/9 146/337/10 147/339/9 136/340/9
f 136/340/9 147/339/9 148/341/9 135/342/9
f 135/342/9 148/341/9 149/343/9 134/344/9
f 134/344/9 149/343/9 150/334/9 133/333/9
f 122/318/2 121/317/2 138/345/2 127/346/2
f 127/346/2 138/345/2 137/347/2 128/348/2
f 128/348/2 137/347/2 136/349/2 129/350/2
f 129/350/2 136/349/2 135/351/2 130/352/2
f 130/352/2 135/351/2 134/353/2 131/354/2
f 131/354/2 134/353/2 133/332/2 132/331/2
f 124/316/7 122/315/7 127/355/8 139/356/8
f 139/356/8 127/355/8 128/357/8 140/358/8
f 140/358/8 128/357/8 129/359/7 141/360/7
f 141/360/7 129/359/7 130/361/7 142/362/7
f 142/362/7 130/361/7 131/363/7 143/364/7
f 143/364/7 131/363/7 132/330/7 144/329/7
f 117/365/3 150/366/3 144/367/3 118/368/3
f 143/364/7 144/329/7 152/176/7 151/175/7
f 149/369/3 148/370/3 142/371/3 143/372/3
f 141/360/7 142/362/7 156/182/7 155/181/7
f 147/373/3 146/374/3 140/375/3 141/376/3
f 140/377/1 146/378/1 162/189/1 160/188/1
f 144/379/1 150/380/1 154/193/1 152/192/1
f 150/334/9 149/343/9 153/196/9 154/195/9
f 149/381/6 143/382/6 151/199/6 153/198/6
f 142/383/1 148/384/1 158/203/1 156/202/1
f 148/341/9 147/339/9 157/206/9 158/205/9
f 147/385/6 141/386/6 155/209/6 157/208/6
f 139/356/8 140/358/8 160/212/8 159/211/8
f 145/387/6 139/388/6 159/215/6 161/214/6
f 146/337/10 145/335/10 161/218/9 162/217/9
