# Blender 4.4.0
# www.blender.org
o chair5
v 0.300489 0.612355 0.274813
v 0.300489 0.612355 -0.326168
v 0.282988 0.555967 0.281086
v 0.282988 0.555967 -0.320174
v 0.300489 0.612355 0.323092
v 0.282988 0.555967 0.316819
v 0.300489 0.612355 -0.271730
v 0.282988 0.555967 -0.277725
v 0.215237 0.612355 0.274813
v 0.215237 0.612355 -0.326168
v 0.232738 0.555967 0.281086
v 0.232738 0.555967 -0.320174
v 0.215237 0.612355 0.323092
v 0.232738 0.555967 0.316819
v 0.232738 0.555967 -0.277725
v 0.215237 0.612355 -0.271730
v 0.215237 0.555967 0.274813
v 0.300489 0.555967 0.274813
v 0.300489 0.555967 -0.271730
v 0.300489 0.555967 -0.326168
v 0.215237 0.555967 0.323092
v 0.300489 0.555967 0.323092
v 0.215237 0.555967 -0.326168
v 0.215237 0.555967 -0.271730
v 0.232738 0.004959 0.281086
v 0.282988 0.004959 0.281086
v 0.282988 0.004959 -0.277724
v 0.282988 0.004959 -0.320173
v 0.232738 0.004959 0.316819
v 0.282988 0.004959 0.316819
v 0.232738 0.004959 -0.320173
v 0.232738 0.004959 -0.277724
v -0.300493 0.612355 0.274813
v -0.300493 0.612355 -0.326168
v -0.282993 0.555967 0.281086
v -0.282993 0.555967 -0.320174
v -0.300493 0.612355 0.323092
v -0.282993 0.555967 0.316819
v -0.300493 0.612355 -0.271730
v -0.282993 0.555967 -0.277725
v -0.215240 0.612355 0.274813
v -0.215240 0.612355 -0.326168
v -0.232742 0.555967 0.281086
v -0.232742 0.555967 -0.320174
v -0.215240 0.612355 0.323092
v -0.232742 0.555967 0.316819
v -0.232742 0.555967 -0.277725
v -0.215240 0.612355 -0.271730
v -0.000002 0.612355 -0.326168
v -0.000002 0.555967 0.274813
v -0.000002 0.612355 0.323092
v -0.000002 0.555967 0.323092
v -0.000002 0.555967 -0.326168
v -0.000002 0.555967 -0.271730
v -0.215240 0.555967 0.274813
v -0.300493 0.555967 0.274813
v -0.300493 0.555967 -0.271730
v -0.300493 0.555967 -0.326168
v -0.215240 0.555967 0.323092
v -0.300493 0.555967 0.323092
v -0.215240 0.555967 -0.326168
v -0.215240 0.555967 -0.271730
v -0.232742 0.004959 0.281086
v -0.282993 0.004959 0.281086
v -0.282993 0.004959 -0.277724
v -0.282993 0.004959 -0.320173
v -0.232742 0.004959 0.316819
v -0.282993 0.004959 0.316819
v -0.232742 0.004959 -0.320173
v -0.232742 0.004959 -0.277724
v -0.000002 0.612355 -0.271730
v -0.000002 0.612355 0.274813
vn -0.0000 1.0000 -0.0000
vn -1.0000 -0.0000 -0.0000
vn 1.0000 -0.0000 -0.0000
vn -0.0000 -0.0000 1.0000
vn -0.0000 -1.0000 -0.0000
vn -0.0000 -0.0000 -1.0000
vt 0.517879 0.048692
vt 0.457264 0.048692
vt 0.457264 0.009986
vt 0.517879 0.009986
vt 0.786247 0.883363
vt 0.786247 0.491590
vt 0.816429 0.491590
vt 0.816429 0.883363
vt 0.904541 0.044312
vt 0.904541 0.009986
vt 0.944634 0.009986
vt 0.944634 0.044312
vt 0.904541 0.432911
vt 0.944634 0.432911
vt 0.944634 0.471618
vt 0.904541 0.471618
vt 0.130115 0.858280
vt 0.170208 0.858280
vt 0.170208 0.918895
vt 0.130115 0.918895
vt 0.376676 0.437292
vt 0.376677 0.048692
vt 0.437292 0.048692
vt 0.437292 0.437292
vt 0.517879 0.437292
vt 0.457264 0.437292
vt 0.357283 0.883363
vt 0.357283 0.491590
vt 0.393012 0.491590
vt 0.393012 0.883363
vt 0.070051 0.491589
vt 0.110144 0.491589
vt 0.110144 0.552205
vt 0.070051 0.552205
vt 0.670917 0.009986
vt 0.670917 0.048692
vt 0.389120 0.441751
vt 0.424849 0.441751
vt 0.424849 0.014248
vt 0.437292 0.009986
vt 0.424849 0.044430
vt 0.424849 0.467159
vt 0.437292 0.471618
vt 0.376676 0.471618
vt 0.389120 0.467159
vt 0.389120 0.014248
vt 0.376677 0.009986
vt 0.389120 0.044430
vt 0.240333 0.903335
vt 0.270515 0.903335
vt 0.270515 0.939064
vt 0.240333 0.939064
vt 0.361275 0.939064
vt 0.335867 0.939064
vt 0.335867 0.903335
vt 0.361275 0.903335
vt 0.301582 0.883363
vt 0.301582 0.491590
vt 0.337311 0.491590
vt 0.337311 0.883363
vt 0.927160 0.883363
vt 0.927160 0.491590
vt 0.952568 0.491590
vt 0.952568 0.883363
vt 0.685940 0.883363
vt 0.685940 0.491590
vt 0.716122 0.491590
vt 0.716122 0.883363
vt 0.881780 0.883363
vt 0.881780 0.491590
vt 0.907188 0.491590
vt 0.907188 0.883363
vt 0.524385 0.883363
vt 0.524385 0.491590
vt 0.560114 0.491590
vt 0.560114 0.883363
vt 0.468684 0.883363
vt 0.468684 0.491590
vt 0.504413 0.491590
vt 0.504413 0.883363
vt 0.223639 0.471618
vt 0.223639 0.437292
vt 0.670917 0.437292
vt 0.670917 0.471618
vt 0.517879 0.471618
vt 0.110144 0.705242
vt 0.070051 0.705242
vt 0.223639 0.048692
vt 0.223639 0.009986
vt 0.130115 0.705242
vt 0.170208 0.705242
vt 0.457264 0.471618
vt 0.823954 0.048692
vt 0.823954 0.009986
vt 0.884570 0.009986
vt 0.884570 0.048692
vt 0.665968 0.883363
vt 0.635787 0.883363
vt 0.635787 0.491590
vt 0.665968 0.491590
vt 0.009986 0.918895
vt 0.050079 0.918895
vt 0.050079 0.953221
vt 0.009986 0.953221
vt 0.009986 0.530296
vt 0.009986 0.491589
vt 0.050079 0.491589
vt 0.050079 0.530296
vt 0.130115 0.552205
vt 0.130115 0.491589
vt 0.170208 0.491589
vt 0.170208 0.552205
vt 0.070601 0.437292
vt 0.009986 0.437292
vt 0.009986 0.048692
vt 0.070601 0.048692
vt 0.823954 0.437292
vt 0.884570 0.437292
vt 0.281610 0.883363
vt 0.245881 0.883363
vt 0.245881 0.491590
vt 0.281610 0.491590
vt 0.070051 0.918895
vt 0.070051 0.858280
vt 0.110144 0.858280
vt 0.110144 0.918895
vt 0.058158 0.441751
vt 0.022429 0.441751
vt 0.022429 0.014248
vt 0.022429 0.044430
vt 0.009986 0.009986
vt 0.022429 0.467159
vt 0.058158 0.467159
vt 0.070601 0.471618
vt 0.009986 0.471618
vt 0.058158 0.014248
vt 0.070601 0.009986
vt 0.058158 0.044430
vt 0.190180 0.939064
vt 0.190180 0.903335
vt 0.220362 0.903335
vt 0.220362 0.939064
vt 0.315895 0.903335
vt 0.315895 0.939064
vt 0.290487 0.939064
vt 0.290487 0.903335
vt 0.225909 0.883363
vt 0.190180 0.883363
vt 0.190180 0.491590
vt 0.225909 0.491590
vt 0.861808 0.883363
vt 0.836400 0.883363
vt 0.836400 0.491590
vt 0.861808 0.491590
vt 0.766275 0.883363
vt 0.736093 0.883363
vt 0.736094 0.491590
vt 0.766275 0.491590
vt 0.990014 0.401759
vt 0.964606 0.401759
vt 0.964606 0.009986
vt 0.990014 0.009986
vt 0.448712 0.883363
vt 0.412983 0.883363
vt 0.412983 0.491590
vt 0.448712 0.491590
vt 0.615815 0.883363
vt 0.580086 0.883363
vt 0.580086 0.491590
vt 0.615815 0.491590
vt 0.823954 0.471618
vt 0.884570 0.471618
s 1
f 16/1/1 7/2/1 2/3/1 10/4/1
f 12/5/2 31/6/2 32/7/2 15/8/2
f 1/9/3 5/10/3 22/11/3 18/12/3
f 7/13/3 19/14/3 20/15/3 2/16/3
f 13/17/4 21/18/4 22/19/4 5/20/4
f 1/9/3 18/12/3 19/14/3 7/13/3
f 17/21/5 24/22/5 19/23/5 18/24/5
f 9/25/1 1/26/1 7/2/1 16/1/1
f 3/27/6 26/28/6 25/29/6 11/30/6
f 2/31/6 20/32/6 23/33/6 10/34/6
f 49/35/1 71/36/1 16/1/1 10/4/1
f 11/37/5 17/21/5 18/24/5 3/38/5
f 4/39/5 20/40/5 19/23/5 8/41/5
f 6/42/5 22/43/5 21/44/5 14/45/5
f 3/38/5 18/24/5 22/43/5 6/42/5
f 12/46/5 23/47/5 20/40/5 4/39/5
f 8/41/5 19/23/5 24/22/5 15/48/5
f 14/45/5 21/44/5 17/21/5 11/37/5
f 15/48/5 24/22/5 23/47/5 12/46/5
f 32/49/5 31/50/5 28/51/5 27/52/5
f 26/53/5 30/54/5 29/55/5 25/56/5
f 15/57/4 32/58/4 27/59/4 8/60/4
f 6/61/3 30/62/3 26/63/3 3/64/3
f 8/65/3 27/66/3 28/67/3 4/68/3
f 11/69/2 25/70/2 29/71/2 14/72/2
f 4/73/6 28/74/6 31/75/6 12/76/6
f 14/77/4 29/78/4 30/79/4 6/80/4
f 17/21/5 21/44/5 52/81/5 50/82/5
f 72/83/1 51/84/1 13/85/1 9/25/1
f 71/36/1 72/83/1 9/25/1 16/1/1
f 10/34/6 23/33/6 53/86/6 49/87/6
f 54/88/5 53/89/5 23/47/5 24/22/5
f 51/90/4 52/91/4 21/18/4 13/17/4
f 50/82/5 54/88/5 24/22/5 17/21/5
f 1/26/1 9/25/1 13/85/1 5/92/1
f 48/93/1 42/94/1 34/95/1 39/96/1
f 44/97/3 47/98/3 70/99/3 69/100/3
f 33/101/2 56/102/2 60/103/2 37/104/2
f 39/105/2 34/106/2 58/107/2 57/108/2
f 45/109/4 37/110/4 60/111/4 59/112/4
f 33/101/2 39/105/2 57/108/2 56/102/2
f 55/113/5 56/114/5 57/115/5 62/116/5
f 41/117/1 48/93/1 39/96/1 33/118/1
f 35/119/6 43/120/6 63/121/6 64/122/6
f 34/123/6 42/124/6 61/125/6 58/126/6
f 49/35/1 42/94/1 48/93/1 71/36/1
f 43/127/5 35/128/5 56/114/5 55/113/5
f 36/129/5 40/130/5 57/115/5 58/131/5
f 38/132/5 46/133/5 59/134/5 60/135/5
f 35/128/5 38/132/5 60/135/5 56/114/5
f 44/136/5 36/129/5 58/131/5 61/137/5
f 40/130/5 47/138/5 62/116/5 57/115/5
f 46/133/5 43/127/5 55/113/5 59/134/5
f 47/138/5 44/136/5 61/137/5 62/116/5
f 70/139/5 65/140/5 66/141/5 69/142/5
f 64/143/5 63/144/5 67/145/5 68/146/5
f 47/147/4 40/148/4 65/149/4 70/150/4
f 38/151/2 35/152/2 64/153/2 68/154/2
f 40/155/2 36/156/2 66/157/2 65/158/2
f 43/159/3 46/160/3 67/161/3 63/162/3
f 36/163/6 44/164/6 69/165/6 66/166/6
f 46/167/4 38/168/4 68/169/4 67/170/4
f 55/113/5 50/82/5 52/81/5 59/134/5
f 72/83/1 41/117/1 45/171/1 51/84/1
f 71/36/1 48/93/1 41/117/1 72/83/1
f 42/124/6 49/87/6 53/86/6 61/125/6
f 54/88/5 62/116/5 61/137/5 53/89/5
f 51/90/4 45/109/4 59/112/4 52/91/4
f 50/82/5 55/113/5 62/116/5 54/88/5
f 33/118/1 37/172/1 45/171/1 41/117/1
