# Blender 4.4.0
# www.blender.org
o chair1
v -0.160547 0.607153 0.300492
v 0.440435 0.607153 0.300492
v -0.166819 0.550765 0.282990
v 0.434440 0.550765 0.282990
v -0.208825 0.607153 0.300492
v -0.202554 0.550765 0.282990
v -0.203463 1.393723 0.300492
v -0.251741 1.393723 0.300492
v 0.385996 0.607153 0.300492
v 0.391991 0.550765 0.282990
v -0.160547 0.607153 0.215240
v 0.440435 0.607153 0.215240
v -0.166819 0.550765 0.232739
v 0.434440 0.550765 0.232739
v -0.208825 0.607153 0.215240
v -0.202554 0.550765 0.232739
v -0.203463 1.393723 0.215239
v -0.251741 1.393723 0.215239
v 0.391991 0.550765 0.232739
v 0.385996 0.607153 0.215240
v -0.160547 0.550765 0.215240
v -0.160547 0.550765 0.300492
v 0.385996 0.550765 0.300492
v 0.440435 0.550765 0.300492
v -0.208825 0.550765 0.215240
v -0.208825 0.550765 0.300492
v 0.440435 0.550765 0.215240
v 0.385996 0.550765 0.215240
v -0.166819 -0.000243 0.232740
v -0.166819 -0.000243 0.282991
v 0.391991 -0.000243 0.282991
v 0.434440 -0.000243 0.282991
v -0.202554 -0.000243 0.232740
v -0.202554 -0.000243 0.282991
v 0.434440 -0.000243 0.232740
v 0.391991 -0.000243 0.232740
v -0.203463 1.298270 0.300492
v -0.251741 1.298270 0.300492
v -0.251741 1.298270 0.215239
v -0.203463 1.298270 0.215239
v -0.208825 0.664466 0.300492
v -0.160547 0.664466 0.300492
v -0.208825 0.664466 0.215240
v -0.160547 0.664466 0.215240
v -0.160547 0.607153 0.028075
v -0.160547 0.607153 0.086262
v -0.160547 0.607153 0.149276
v -0.160547 0.550765 0.028075
v -0.160547 0.550765 0.086262
v -0.160547 0.550765 0.149276
v -0.208825 0.607153 0.028075
v -0.208825 0.607153 0.086262
v -0.208825 0.607153 0.149276
v -0.208825 0.550765 0.028075
v -0.208825 0.550765 0.086262
v -0.208825 0.550765 0.149276
v -0.203463 1.393723 0.028074
v -0.203463 1.393723 0.086261
v -0.203463 1.393723 0.149275
v -0.251741 1.393723 0.028074
v -0.251741 1.393723 0.086261
v -0.251741 1.393723 0.149275
v 0.385996 0.607153 0.028075
v 0.385996 0.607153 0.086262
v 0.385996 0.607153 0.149276
v 0.440435 0.607153 0.149276
v 0.440435 0.607153 0.086262
v 0.440435 0.607153 0.028075
v 0.440435 0.550765 0.149276
v 0.440435 0.550765 0.086262
v 0.440435 0.550765 0.028075
v 0.385996 0.550765 0.149276
v 0.385996 0.550765 0.086262
v 0.385996 0.550765 0.028075
v -0.251741 1.298270 0.028074
v -0.251741 1.298270 0.086261
v -0.251741 1.298270 0.149275
v -0.203463 1.298270 0.149275
v -0.203463 1.298270 0.086261
v -0.203463 1.298270 0.028074
v -0.160547 0.664466 0.149276
v -0.160547 0.664466 0.086262
v -0.160547 0.664466 0.028075
v -0.208825 0.664466 0.028075
v -0.208825 0.664466 0.086262
v -0.208825 0.664466 0.149276
v -0.160547 0.607153 -0.300491
v 0.440435 0.607153 -0.300491
v -0.166819 0.550765 -0.282990
v 0.434440 0.550765 -0.282990
v -0.208825 0.607153 -0.300491
v -0.202554 0.550765 -0.282990
v -0.203463 1.393723 -0.300492
v -0.251741 1.393723 -0.300492
v 0.385996 0.607153 -0.300491
v 0.391991 0.550765 -0.282990
v -0.160547 0.607153 -0.215240
v 0.440435 0.607153 -0.215240
v -0.166819 0.550765 -0.232739
v 0.434440 0.550765 -0.232739
v -0.208825 0.607153 -0.215240
v -0.202554 0.550765 -0.232739
v -0.203463 1.393723 -0.215240
v -0.251741 1.393723 -0.215240
v 0.391991 0.550765 -0.232739
v 0.385996 0.607153 -0.215240
v -0.160547 0.550765 -0.215240
v -0.160547 0.550765 -0.300491
v 0.385996 0.550765 -0.300491
v 0.440435 0.550765 -0.300491
v -0.208825 0.550765 -0.215240
v -0.208825 0.550765 -0.300491
v 0.440435 0.550765 -0.215240
v 0.385996 0.550765 -0.215240
v -0.166819 -0.000243 -0.232739
v -0.166819 -0.000243 -0.282990
v 0.391991 -0.000243 -0.282990
v 0.434440 -0.000243 -0.282990
v -0.202554 -0.000243 -0.232739
v -0.202554 -0.000243 -0.282990
v 0.434440 -0.000243 -0.232739
v 0.391991 -0.000243 -0.232739
v -0.203463 1.298270 -0.300491
v -0.251741 1.298270 -0.300491
v -0.251741 1.298270 -0.215240
v -0.203463 1.298270 -0.215240
v -0.208825 0.664466 -0.300491
v -0.160547 0.664466 -0.300491
v -0.208825 0.664466 -0.215240
v -0.160547 0.664466 -0.215240
v -0.160547 0.607153 -0.028074
v -0.160547 0.607153 -0.086262
v -0.160547 0.607153 -0.149276
v -0.160547 0.550765 -0.028074
v -0.160547 0.550765 -0.086262
v -0.160547 0.550765 -0.149276
v -0.208825 0.607153 -0.028074
v -0.208825 0.607153 -0.086262
v -0.208825 0.607153 -0.149276
v -0.208825 0.550765 -0.028074
v -0.208825 0.550765 -0.086262
v -0.208825 0.550765 -0.149276
v -0.203463 1.393723 -0.028075
v -0.203463 1.393723 -0.086262
v -0.203463 1.393723 -0.149276
v -0.251741 1.393723 -0.028075
v -0.251741 1.393723 -0.086262
v -0.251741 1.393723 -0.149276
v 0.385996 0.607153 -0.028074
v 0.385996 0.607153 -0.086262
v 0.385996 0.607153 -0.149276
v 0.440435 0.607153 -0.149276
v 0.440435 0.607153 -0.086262
v 0.440435 0.607153 -0.028074
v 0.440435 0.550765 -0.149276
v 0.440435 0.550765 -0.086262
v 0.440435 0.550765 -0.028074
v 0.385996 0.550765 -0.149276
v 0.385996 0.550765 -0.086262
v 0.385996 0.550765 -0.028074
v -0.251741 1.298270 -0.028075
v -0.251741 1.298270 -0.086262
v -0.251741 1.298270 -0.149276
v -0.203463 1.298270 -0.149276
v -0.203463 1.298270 -0.086262
v -0.203463 1.298270 -0.028075
v -0.160547 0.664466 -0.149276
v -0.160547 0.664466 -0.086262
v -0.160547 0.664466 -0.028074
v -0.208825 0.664466 -0.028074
v -0.208825 0.664466 -0.086262
v -0.208825 0.664466 -0.149276
vn -0.0000 1.0000 -0.0000
vn -0.0000 -0.0000 -1.0000
vn -0.0000 -0.0000 1.0000
vn -1.0000 -0.0000 -0.0000
vn 1.0000 -0.0000 -0.0000
vn -0.0000 -1.0000 -0.0000
vn 0.9977 0.0676 -0.0000
vn -0.9977 -0.0676 -0.0000
vt 0.356158 0.417099
vt 0.321188 0.417099
vt 0.321188 0.394768
vt 0.356158 0.394768
vt 0.281584 0.868998
vt 0.281584 0.642980
vt 0.298996 0.642980
vt 0.298996 0.868998
vt 0.257209 0.335354
vt 0.276979 0.334219
vt 0.278305 0.357311
vt 0.258534 0.358446
vt 0.033390 0.348204
vt 0.034715 0.371296
vt 0.012422 0.372576
vt 0.011096 0.349484
vt 0.222644 0.417898
vt 0.222644 0.394768
vt 0.257614 0.394768
vt 0.257614 0.417898
vt 0.624868 0.294739
vt 0.624868 0.333892
vt 0.589898 0.333892
vt 0.589898 0.294739
vt 0.340991 0.698448
vt 0.321188 0.698448
vt 0.321188 0.663479
vt 0.340991 0.663479
vt 0.258534 0.051321
vt 0.256290 0.012231
vt 0.276061 0.011096
vt 0.278305 0.050186
vt 0.801446 0.602602
vt 0.801446 0.378414
vt 0.836416 0.378414
vt 0.836416 0.602602
vt 0.356158 0.641286
vt 0.321188 0.641286
vt 0.383216 0.641286
vt 0.383216 0.417099
vt 0.774389 0.602602
vt 0.774389 0.378414
vt 0.257614 0.701540
vt 0.257614 0.740693
vt 0.222644 0.740693
vt 0.222644 0.701540
vt 0.340991 0.725506
vt 0.321188 0.725506
vt 0.651926 0.294739
vt 0.651926 0.333892
vt 0.900559 0.754016
vt 0.900559 0.528007
vt 0.921171 0.528007
vt 0.921171 0.754016
vt 0.195587 0.417898
vt 0.195587 0.394768
vt 0.858609 0.011096
vt 0.881738 0.011096
vt 0.881738 0.046066
vt 0.858609 0.046066
vt 0.774389 0.356084
vt 0.801446 0.356084
vt 0.383216 0.394768
vt 0.701641 0.602602
vt 0.724673 0.602602
vt 0.724673 0.622405
vt 0.701641 0.622405
vt 0.122839 0.701540
vt 0.145871 0.701540
vt 0.145871 0.740693
vt 0.122839 0.740693
vt 0.432931 0.394768
vt 0.455963 0.394768
vt 0.455963 0.417099
vt 0.432931 0.417099
vt 0.808625 0.605174
vt 0.829238 0.605174
vt 0.829238 0.358543
vt 0.836416 0.356084
vt 0.829238 0.375955
vt 0.829238 0.619832
vt 0.836416 0.622405
vt 0.801446 0.622405
vt 0.808625 0.619832
vt 0.808625 0.358543
vt 0.808625 0.375955
vt 0.205638 0.858195
vt 0.223051 0.858195
vt 0.223051 0.878808
vt 0.205638 0.878808
vt 0.873267 0.914692
vt 0.858608 0.914692
vt 0.858608 0.894079
vt 0.873267 0.894079
vt 0.405988 0.889487
vt 0.405988 0.663479
vt 0.426601 0.663479
vt 0.426601 0.889487
vt 0.011096 0.988904
vt 0.011096 0.762885
vt 0.025754 0.762885
vt 0.025754 0.988904
vt 0.943364 0.754036
vt 0.943364 0.528018
vt 0.960776 0.528018
vt 0.960776 0.754036
vt 0.946735 0.237115
vt 0.946735 0.011096
vt 0.961393 0.011096
vt 0.961393 0.237115
vt 0.900559 0.505815
vt 0.900559 0.279806
vt 0.921171 0.279806
vt 0.921171 0.505815
vt 0.448793 0.889488
vt 0.448793 0.663479
vt 0.469406 0.663479
vt 0.469406 0.889488
vt 0.701641 0.034604
vt 0.724673 0.034604
vt 0.724673 0.294739
vt 0.701641 0.294739
vt 0.257614 0.441405
vt 0.222644 0.441405
vt 0.255861 0.311884
vt 0.275632 0.310749
vt 0.624868 0.034604
vt 0.589898 0.034604
vt 0.624868 0.011096
vt 0.589898 0.011096
vt 0.651926 0.011096
vt 0.651926 0.034604
vt 0.701641 0.011096
vt 0.724673 0.011096
vt 0.195587 0.441405
vt 0.169739 0.441405
vt 0.169739 0.417898
vt 0.145871 0.441405
vt 0.145871 0.417898
vt 0.677774 0.034604
vt 0.677774 0.011096
vt 0.122839 0.417898
vt 0.122839 0.441405
vt 0.677774 0.294739
vt 0.195587 0.701540
vt 0.169739 0.701540
vt 0.195587 0.740693
vt 0.169739 0.740693
vt 0.774389 0.622405
vt 0.748541 0.622405
vt 0.748541 0.602602
vt 0.881738 0.073124
vt 0.858609 0.073124
vt 0.881738 0.098971
vt 0.858609 0.098971
vt 0.881738 0.122839
vt 0.858609 0.122839
vt 0.724673 0.378414
vt 0.701641 0.378414
vt 0.701641 0.356084
vt 0.724673 0.356084
vt 0.409063 0.417099
vt 0.409063 0.394768
vt 0.122839 0.394768
vt 0.145871 0.394768
vt 0.748541 0.356084
vt 0.748541 0.378414
vt 0.724673 0.333892
vt 0.701641 0.333892
vt 0.169739 0.394768
vt 0.340991 0.775222
vt 0.340991 0.798254
vt 0.321188 0.798254
vt 0.321188 0.775222
vt 0.677774 0.333892
vt 0.321188 0.751354
vt 0.340991 0.751354
vt 0.455963 0.641286
vt 0.432931 0.641286
vt 0.409063 0.641286
vt 0.777457 0.905173
vt 0.757699 0.906511
vt 0.757699 0.645935
vt 0.777457 0.644597
vt 0.121648 0.762885
vt 0.141451 0.762885
vt 0.141451 0.789943
vt 0.121648 0.789943
vt 0.735507 0.906511
vt 0.715749 0.905173
vt 0.715749 0.644597
vt 0.735507 0.645935
vt 0.121648 0.839193
vt 0.121648 0.812135
vt 0.141451 0.812135
vt 0.141451 0.839193
vt 0.183446 0.858195
vt 0.183446 0.882063
vt 0.163643 0.882063
vt 0.163643 0.858195
vt 0.693556 0.905173
vt 0.673799 0.906511
vt 0.673799 0.645935
vt 0.693556 0.644597
vt 0.858608 0.848019
vt 0.878412 0.848019
vt 0.878412 0.871887
vt 0.858608 0.871887
vt 0.631849 0.905173
vt 0.631849 0.644597
vt 0.651606 0.645935
vt 0.651606 0.906511
vt 0.532736 0.417099
vt 0.532736 0.394768
vt 0.567706 0.394768
vt 0.567706 0.417099
vt 0.960776 0.505825
vt 0.943364 0.505825
vt 0.943364 0.279806
vt 0.960776 0.279806
vt 0.546610 0.048318
vt 0.547936 0.025226
vt 0.567706 0.026361
vt 0.566380 0.049453
vt 0.322791 0.035468
vt 0.300497 0.034188
vt 0.301823 0.011096
vt 0.324116 0.012376
vt 0.046066 0.417898
vt 0.011096 0.417898
vt 0.011096 0.394768
vt 0.046066 0.394768
vt 0.801447 0.294739
vt 0.836416 0.294739
vt 0.836416 0.333892
vt 0.801447 0.333892
vt 0.340991 0.875027
vt 0.340991 0.909997
vt 0.321188 0.909997
vt 0.321188 0.875027
vt 0.547935 0.332351
vt 0.567706 0.333486
vt 0.565462 0.372576
vt 0.545691 0.371441
vt 0.624868 0.602602
vt 0.589898 0.602602
vt 0.589898 0.378414
vt 0.624868 0.378414
vt 0.532736 0.641286
vt 0.567706 0.641286
vt 0.505679 0.641286
vt 0.505679 0.417099
vt 0.651926 0.602602
vt 0.651926 0.378414
vt 0.011096 0.701540
vt 0.046066 0.701540
vt 0.046066 0.740693
vt 0.011096 0.740693
vt 0.340991 0.847969
vt 0.321188 0.847969
vt 0.774389 0.294739
vt 0.774389 0.333892
vt 0.512210 0.889487
vt 0.491598 0.889487
vt 0.491598 0.663479
vt 0.512211 0.663479
vt 0.073124 0.417898
vt 0.073124 0.394768
vt 0.858609 0.257614
vt 0.858609 0.222644
vt 0.881738 0.222644
vt 0.881738 0.257614
vt 0.624868 0.356084
vt 0.651926 0.356084
vt 0.505679 0.394768
vt 0.617689 0.605174
vt 0.597077 0.605174
vt 0.597077 0.358543
vt 0.597077 0.375955
vt 0.589898 0.356084
vt 0.597077 0.619832
vt 0.617689 0.619832
vt 0.624868 0.622405
vt 0.589898 0.622405
vt 0.617689 0.358543
vt 0.617689 0.375955
vt 0.121648 0.881998
vt 0.121648 0.861385
vt 0.139060 0.861385
vt 0.139060 0.881998
vt 0.296242 0.891190
vt 0.296242 0.911803
vt 0.281584 0.911803
vt 0.281584 0.891190
vt 0.924543 0.237105
vt 0.903930 0.237105
vt 0.903930 0.011096
vt 0.924543 0.011096
vt 0.099455 0.988904
vt 0.084797 0.988904
vt 0.084797 0.762885
vt 0.099455 0.762885
vt 0.298996 0.620787
vt 0.281584 0.620787
vt 0.281584 0.394768
vt 0.298996 0.394768
vt 0.062605 0.988904
vt 0.047947 0.988904
vt 0.047947 0.762885
vt 0.062605 0.762885
vt 0.383796 0.889488
vt 0.363183 0.889488
vt 0.363183 0.663479
vt 0.383796 0.663479
vt 0.555015 0.889488
vt 0.534403 0.889488
vt 0.534403 0.663479
vt 0.555015 0.663479
vt 0.011096 0.441405
vt 0.046066 0.441405
vt 0.545262 0.071788
vt 0.565033 0.072923
vt 0.801447 0.034604
vt 0.836416 0.034604
vt 0.801447 0.011096
vt 0.836416 0.011096
vt 0.774389 0.011096
vt 0.774389 0.034604
vt 0.073124 0.441405
vt 0.098971 0.417898
vt 0.098971 0.441405
vt 0.748541 0.011096
vt 0.748541 0.034604
vt 0.748541 0.294739
vt 0.098971 0.701540
vt 0.073124 0.701540
vt 0.073124 0.740693
vt 0.098971 0.740693
vt 0.651926 0.622405
vt 0.677774 0.602602
vt 0.677774 0.622405
vt 0.858609 0.195587
vt 0.881738 0.195587
vt 0.858609 0.169739
vt 0.881738 0.169739
vt 0.858609 0.145871
vt 0.881738 0.145871
vt 0.479831 0.394768
vt 0.479831 0.417099
vt 0.677774 0.378414
vt 0.677774 0.356084
vt 0.098971 0.394768
vt 0.748541 0.333892
vt 0.340991 0.822121
vt 0.321188 0.822121
vt 0.479831 0.641286
vt 0.858609 0.540383
vt 0.858609 0.279806
vt 0.878366 0.281144
vt 0.878366 0.541721
vt 0.205638 0.789943
vt 0.205638 0.762885
vt 0.225441 0.762885
vt 0.225441 0.789943
vt 0.858608 0.825827
vt 0.858608 0.565251
vt 0.878366 0.563913
vt 0.878366 0.824489
vt 0.163643 0.762885
vt 0.183446 0.762885
vt 0.183446 0.789943
vt 0.163643 0.789943
vt 0.225441 0.836003
vt 0.205638 0.836003
vt 0.205638 0.812135
vt 0.225441 0.812135
vt 0.589898 0.905173
vt 0.589898 0.644597
vt 0.609656 0.645935
vt 0.609656 0.906511
vt 0.163643 0.836003
vt 0.163643 0.812135
vt 0.183446 0.812135
vt 0.183446 0.836003
vt 0.819407 0.905173
vt 0.799649 0.906511
vt 0.799649 0.645935
vt 0.819407 0.644597
s 1
f 20/1/1 9/2/1 2/3/1 12/4/1
f 14/5/2 35/6/2 36/7/2 19/8/2
f 1/9/3 5/10/3 26/11/3 22/12/3
f 9/13/3 23/14/3 24/15/3 2/16/3
f 15/17/4 25/18/4 26/19/4 5/20/4
f 40/21/5 17/22/5 7/23/5 37/24/5
f 17/25/1 18/26/1 8/27/1 7/28/1
f 37/29/3 7/30/3 8/31/3 38/32/3
f 1/9/3 22/12/3 23/14/3 9/13/3
f 21/33/6 28/34/6 23/35/6 22/36/6
f 11/37/1 1/38/1 9/2/1 20/1/1
f 47/39/1 11/37/1 20/1/1 65/40/1
f 50/41/6 72/42/6 28/34/6 21/33/6
f 38/43/4 8/44/4 18/45/4 39/46/4
f 59/47/1 62/48/1 18/26/1 17/25/1
f 78/49/5 59/50/5 17/22/5 40/21/5
f 3/51/5 30/52/5 29/53/5 13/54/5
f 53/55/4 56/56/4 25/18/4 15/17/4
f 2/57/5 24/58/5 27/59/5 12/60/5
f 72/42/6 69/61/6 27/62/6 28/34/6
f 65/40/1 20/1/1 12/4/1 66/63/1
f 134/64/6 48/65/6 54/66/6 140/67/6
f 161/68/4 75/69/4 60/70/4 146/71/4
f 68/72/1 154/73/1 149/74/1 63/75/1
f 13/76/6 21/33/6 22/36/6 3/77/6
f 4/78/6 24/79/6 23/35/6 10/80/6
f 6/81/6 26/82/6 25/83/6 16/84/6
f 3/77/6 22/36/6 26/82/6 6/81/6
f 14/85/6 27/62/6 24/79/6 4/78/6
f 10/80/6 23/35/6 28/34/6 19/86/6
f 16/84/6 25/83/6 21/33/6 13/76/6
f 19/86/6 28/34/6 27/62/6 14/85/6
f 36/87/6 35/88/6 32/89/6 31/90/6
f 30/91/6 34/92/6 33/93/6 29/94/6
f 19/95/4 36/96/4 31/97/4 10/98/4
f 6/99/3 34/100/3 30/101/3 3/102/3
f 10/103/3 31/104/3 32/105/3 4/106/3
f 13/107/2 29/108/2 33/109/2 16/110/2
f 4/111/5 32/112/5 35/113/5 14/114/5
f 16/115/4 33/116/4 34/117/4 6/118/4
f 83/119/7 169/120/7 166/121/7 80/122/7
f 41/123/8 38/43/8 39/46/8 43/124/8
f 42/125/3 37/29/3 38/32/3 41/126/3
f 44/127/7 40/21/7 37/24/7 42/128/7
f 11/129/5 44/127/5 42/128/5 1/130/5
f 1/9/3 42/125/3 41/126/3 5/10/3
f 5/20/4 41/123/4 43/124/4 15/17/4
f 47/131/5 81/132/5 44/127/5 11/129/5
f 45/133/5 131/134/5 169/120/5 83/119/5
f 15/17/4 43/124/4 86/135/4 53/55/4
f 53/55/4 86/135/4 85/136/4 52/137/4
f 52/137/4 85/136/4 84/138/4 51/139/4
f 45/133/5 83/119/5 82/140/5 46/141/5
f 46/141/5 82/140/5 81/132/5 47/131/5
f 137/142/4 51/139/4 84/138/4 170/143/4
f 82/140/7 79/144/7 78/49/7 81/132/7
f 86/135/8 77/145/8 76/146/8 85/136/8
f 39/46/4 18/45/4 62/147/4 77/145/4
f 77/145/4 62/147/4 61/148/4 76/146/4
f 76/146/4 61/148/4 60/70/4 75/69/4
f 21/33/6 25/83/6 56/149/6 50/41/6
f 50/41/6 56/149/6 55/150/6 49/151/6
f 49/151/6 55/150/6 54/66/6 48/65/6
f 12/60/5 27/59/5 69/152/5 66/153/5
f 66/153/5 69/152/5 70/154/5 67/155/5
f 67/155/5 70/154/5 71/156/5 68/157/5
f 74/158/6 160/159/6 157/160/6 71/161/6
f 63/75/1 64/162/1 67/163/1 68/72/1
f 64/162/1 65/40/1 66/63/1 67/163/1
f 51/139/4 137/142/4 140/164/4 54/165/4
f 74/158/6 71/161/6 70/166/6 73/167/6
f 73/167/6 70/166/6 69/61/6 72/42/6
f 80/122/5 166/121/5 143/168/5 57/169/5
f 51/139/4 54/165/4 55/170/4 52/137/4
f 52/137/4 55/170/4 56/56/4 53/55/4
f 57/171/1 143/172/1 146/173/1 60/174/1
f 80/122/5 57/169/5 58/175/5 79/144/5
f 79/144/5 58/175/5 59/50/5 78/49/5
f 48/65/6 134/64/6 160/159/6 74/158/6
f 57/171/1 60/174/1 61/176/1 58/177/1
f 58/177/1 61/176/1 62/48/1 59/47/1
f 63/75/1 149/74/1 131/178/1 45/179/1
f 48/65/6 74/158/6 73/167/6 49/151/6
f 49/151/6 73/167/6 72/42/6 50/41/6
f 170/143/8 84/138/8 75/69/8 161/68/8
f 45/179/1 46/180/1 64/162/1 63/75/1
f 46/180/1 47/39/1 65/40/1 64/162/1
f 78/181/3 77/182/3 86/183/3 81/184/3
f 77/185/6 78/186/6 40/187/6 39/188/6
f 39/189/2 40/190/2 44/191/2 43/192/2
f 86/193/1 43/194/1 44/195/1 81/196/1
f 82/197/1 83/198/1 84/199/1 85/200/1
f 80/201/3 75/202/3 84/203/3 83/204/3
f 75/205/6 80/206/6 79/207/6 76/208/6
f 79/209/2 82/210/2 85/211/2 76/212/2
f 106/213/1 98/214/1 88/215/1 95/216/1
f 100/217/3 105/218/3 122/219/3 121/220/3
f 87/221/2 108/222/2 112/223/2 91/224/2
f 95/225/2 88/226/2 110/227/2 109/228/2
f 101/229/4 91/230/4 112/231/4 111/232/4
f 126/233/5 123/234/5 93/235/5 103/236/5
f 103/237/1 93/238/1 94/239/1 104/240/1
f 123/241/2 124/242/2 94/243/2 93/244/2
f 87/221/2 95/225/2 109/228/2 108/222/2
f 107/245/6 108/246/6 109/247/6 114/248/6
f 97/249/1 106/213/1 95/216/1 87/250/1
f 133/251/1 151/252/1 106/213/1 97/249/1
f 136/253/6 107/245/6 114/248/6 158/254/6
f 124/255/4 125/256/4 104/257/4 94/258/4
f 145/259/1 103/237/1 104/240/1 148/260/1
f 164/261/5 126/233/5 103/236/5 145/262/5
f 89/263/5 99/264/5 115/265/5 116/266/5
f 139/267/4 101/229/4 111/232/4 142/268/4
f 88/269/5 98/270/5 113/271/5 110/272/5
f 158/254/6 114/248/6 113/273/6 155/274/6
f 151/252/1 152/275/1 98/214/1 106/213/1
f 99/276/6 89/277/6 108/246/6 107/245/6
f 90/278/6 96/279/6 109/247/6 110/280/6
f 92/281/6 102/282/6 111/283/6 112/284/6
f 89/277/6 92/281/6 112/284/6 108/246/6
f 100/285/6 90/278/6 110/280/6 113/273/6
f 96/279/6 105/286/6 114/248/6 109/247/6
f 102/282/6 99/276/6 107/245/6 111/283/6
f 105/286/6 100/285/6 113/273/6 114/248/6
f 122/287/6 117/288/6 118/289/6 121/290/6
f 116/291/6 115/292/6 119/293/6 120/294/6
f 105/295/4 96/296/4 117/297/4 122/298/4
f 92/299/2 89/300/2 116/301/2 120/302/2
f 96/303/2 90/304/2 118/305/2 117/306/2
f 99/307/3 102/308/3 119/309/3 115/310/3
f 90/311/5 100/312/5 121/313/5 118/314/5
f 102/315/4 92/316/4 120/317/4 119/318/4
f 127/319/8 129/320/8 125/256/8 124/255/8
f 128/321/2 127/322/2 124/242/2 123/241/2
f 130/323/7 128/324/7 123/234/7 126/233/7
f 97/325/5 87/326/5 128/324/5 130/323/5
f 87/221/2 91/224/2 127/322/2 128/321/2
f 91/230/4 101/229/4 129/320/4 127/319/4
f 133/327/5 97/325/5 130/323/5 167/328/5
f 101/229/4 139/267/4 172/329/4 129/320/4
f 139/267/4 138/330/4 171/331/4 172/329/4
f 138/330/4 137/142/4 170/143/4 171/331/4
f 131/134/5 132/332/5 168/333/5 169/120/5
f 132/332/5 133/327/5 167/328/5 168/333/5
f 168/333/7 167/328/7 164/261/7 165/334/7
f 172/329/8 171/331/8 162/335/8 163/336/8
f 125/256/4 163/336/4 148/337/4 104/257/4
f 163/336/4 162/335/4 147/338/4 148/337/4
f 162/335/4 161/68/4 146/71/4 147/338/4
f 107/245/6 136/253/6 142/339/6 111/283/6
f 136/253/6 135/340/6 141/341/6 142/339/6
f 135/340/6 134/64/6 140/67/6 141/341/6
f 98/270/5 152/342/5 155/343/5 113/271/5
f 152/342/5 153/344/5 156/345/5 155/343/5
f 153/344/5 154/346/5 157/347/5 156/345/5
f 149/74/1 154/73/1 153/348/1 150/349/1
f 150/349/1 153/348/1 152/275/1 151/252/1
f 160/159/6 159/350/6 156/351/6 157/160/6
f 159/350/6 158/254/6 155/274/6 156/351/6
f 137/142/4 138/330/4 141/352/4 140/164/4
f 138/330/4 139/267/4 142/268/4 141/352/4
f 166/121/5 165/334/5 144/353/5 143/168/5
f 165/334/5 164/261/5 145/262/5 144/353/5
f 143/172/1 144/354/1 147/355/1 146/173/1
f 144/354/1 145/259/1 148/260/1 147/355/1
f 134/64/6 135/340/6 159/350/6 160/159/6
f 135/340/6 136/253/6 158/254/6 159/350/6
f 131/178/1 149/74/1 150/349/1 132/356/1
f 132/356/1 150/349/1 151/252/1 133/251/1
f 164/357/2 167/358/2 172/359/2 163/360/2
f 163/361/6 125/362/6 126/363/6 164/364/6
f 125/365/3 129/366/3 130/367/3 126/368/3
f 172/369/1 167/370/1 130/371/1 129/372/1
f 168/373/1 171/374/1 170/375/1 169/376/1
f 166/377/2 169/378/2 170/379/2 161/380/2
f 161/381/6 162/382/6 165/383/6 166/384/6
f 165/385/3 162/386/3 171/387/3 168/388/3
f 154/346/5 68/157/5 71/156/5 157/347/5
