# Blender 4.4.0
# www.blender.org
mtllib Table.mtl
o table_Cube
v 1.057903 1.105436 -0.981874
v 0.955792 1.041169 -0.873030
v 1.057903 1.105436 -0.713417
v 0.955792 1.041169 -0.778947
v 0.801148 1.105436 -0.981874
v 0.868428 1.041169 -0.873030
v 0.801148 1.105436 -0.713417
v 0.868428 1.041169 -0.778947
v 0.801148 1.041169 -0.981874
v 1.057903 1.041169 -0.981874
v 1.057903 1.041169 -0.713417
v 0.801148 1.041169 -0.713417
v 0.868428 -0.001219 -0.873030
v 0.955792 -0.001219 -0.873030
v 0.955792 -0.001219 -0.778947
v 0.868428 -0.001219 -0.778947
v -0.942097 1.105436 -0.981874
v -0.839983 1.041169 -0.873030
v -0.942097 1.105436 -0.713417
v -0.839983 1.041169 -0.778947
v -0.685339 1.105436 -0.981874
v -0.752621 1.041169 -0.873030
v -0.685339 1.105436 -0.713417
v 0.057903 1.041169 -0.713417
v 0.057903 1.105436 -0.981874
v 0.057903 1.041169 -0.981874
v 0.057903 1.105436 -0.713417
v -0.752621 1.041169 -0.778947
v -0.685339 1.041169 -0.981874
v -0.942097 1.041169 -0.981874
v -0.942097 1.041169 -0.713417
v -0.685339 1.041169 -0.713417
v -0.752621 -0.001219 -0.873030
v -0.839983 -0.001219 -0.873030
v -0.839983 -0.001219 -0.778947
v -0.752621 -0.001219 -0.778947
v 1.057903 1.105436 1.018126
v 0.955792 1.041170 0.909282
v 1.057903 1.105436 0.749670
v 0.955792 1.041170 0.815200
v 0.801148 1.041169 0.018126
v 0.801148 1.105436 1.018126
v 0.868428 1.041170 0.909282
v 0.801148 1.105436 0.749670
v 1.057903 1.105436 0.018126
v 1.057903 1.041169 0.018126
v 0.801148 1.105436 0.018126
v 0.868428 1.041170 0.815200
v 0.801148 1.041170 1.018126
v 1.057903 1.041170 1.018126
v 1.057903 1.041169 0.749670
v 0.801148 1.041169 0.749670
v 0.868428 -0.001219 0.909282
v 0.955792 -0.001219 0.909282
v 0.955792 -0.001219 0.815200
v 0.868428 -0.001219 0.815200
v -0.942097 1.105436 1.018126
v -0.839983 1.041170 0.909282
v 0.057903 1.041169 0.018126
v -0.942097 1.105436 0.749670
v -0.839983 1.041170 0.815200
v -0.685339 1.041169 0.018126
v -0.685339 1.105436 1.018126
v -0.752621 1.041170 0.909282
v -0.685339 1.105436 0.749670
v -0.942097 1.105436 0.018126
v -0.942097 1.041169 0.018126
v 0.057903 1.041169 0.749670
v -0.685339 1.105436 0.018126
v 0.057903 1.105436 1.018126
v 0.057903 1.041170 1.018126
v 0.057903 1.105436 0.749670
v 0.057903 1.105436 0.018126
v -0.752621 1.041170 0.815200
v -0.685339 1.041170 1.018126
v -0.942097 1.041170 1.018126
v -0.942097 1.041169 0.749670
v -0.685339 1.041169 0.749670
v -0.752621 -0.001219 0.909282
v -0.839983 -0.001219 0.909282
v -0.839983 -0.001219 0.815200
v -0.752621 -0.001219 0.815200
vn -0.0000 -0.0000 -1.0000
vn 1.0000 -0.0000 -0.0000
vn -0.0000 -0.0000 1.0000
vn -0.0000 1.0000 -0.0000
vn -0.0000 -1.0000 -0.0000
vn -1.0000 -0.0000 -0.0000
vt 0.585633 0.069977
vt 0.570067 0.069977
vt 0.570067 0.007787
vt 0.585633 0.007787
vt 0.554493 0.492213
vt 0.538927 0.492213
vt 0.538927 0.427189
vt 0.554493 0.427189
vt 0.726976 0.796374
vt 0.705815 0.796374
vt 0.705815 0.543894
vt 0.726976 0.543894
vt 0.007787 0.007787
vt 0.069977 0.007787
vt 0.069977 0.072811
vt 0.007787 0.072811
vt 0.585633 0.250000
vt 0.570067 0.250000
vt 0.069977 0.250000
vt 0.007787 0.250000
vt 0.538927 0.250000
vt 0.554493 0.250000
vt 0.250000 0.072811
vt 0.250000 0.250000
vt 0.250000 0.007787
vt 0.250000 0.572811
vt 0.250000 0.507787
vt 0.430023 0.507787
vt 0.430023 0.572811
vt 0.492213 0.750000
vt 0.430023 0.750000
vt 0.492213 0.572811
vt 0.467480 0.534150
vt 0.446320 0.534150
vt 0.492213 0.507787
vt 0.467480 0.556938
vt 0.446320 0.556938
vt 0.584510 0.798628
vt 0.584510 0.775840
vt 0.605671 0.775840
vt 0.605671 0.798628
vt 0.653507 0.796374
vt 0.632346 0.796374
vt 0.632346 0.543894
vt 0.653507 0.543894
vt 0.655134 0.260267
vt 0.632347 0.260267
vt 0.632347 0.007787
vt 0.655134 0.007787
vt 0.731858 0.528320
vt 0.709070 0.528320
vt 0.709070 0.275840
vt 0.731858 0.275840
vt 0.250000 0.750000
vt 0.585633 0.430023
vt 0.585633 0.492213
vt 0.570067 0.492213
vt 0.570067 0.430023
vt 0.616773 0.007787
vt 0.616773 0.072810
vt 0.601207 0.072810
vt 0.601207 0.007787
vt 0.747431 0.260267
vt 0.747431 0.007787
vt 0.768592 0.007787
vt 0.768592 0.260267
vt 0.492213 0.007787
vt 0.492213 0.072811
vt 0.430023 0.072811
vt 0.430023 0.007787
vt 0.492213 0.250000
vt 0.430023 0.250000
vt 0.616773 0.250000
vt 0.601207 0.250000
vt 0.069977 0.572811
vt 0.069977 0.507787
vt 0.007787 0.750000
vt 0.007787 0.572811
vt 0.069977 0.750000
vt 0.032520 0.534150
vt 0.007787 0.507787
vt 0.053680 0.534150
vt 0.032520 0.556938
vt 0.053680 0.556938
vt 0.528947 0.798628
vt 0.507787 0.798628
vt 0.507787 0.775840
vt 0.528947 0.775840
vt 0.669081 0.796374
vt 0.669081 0.543894
vt 0.690241 0.543894
vt 0.690241 0.796374
vt 0.507787 0.760267
vt 0.507787 0.507787
vt 0.530575 0.507787
vt 0.530575 0.760267
vt 0.670708 0.528320
vt 0.670708 0.275840
vt 0.693496 0.275840
vt 0.693496 0.528320
vt 0.523353 0.430023
vt 0.523353 0.492213
vt 0.507787 0.492213
vt 0.507787 0.430023
vt 0.554493 0.007787
vt 0.554493 0.072810
vt 0.538927 0.072810
vt 0.538927 0.007787
vt 0.747431 0.528320
vt 0.747431 0.275840
vt 0.768592 0.275840
vt 0.768592 0.528320
vt 0.007787 0.492213
vt 0.007787 0.427189
vt 0.069977 0.427189
vt 0.069977 0.492213
vt 0.523353 0.250000
vt 0.507787 0.250000
vt 0.250000 0.427189
vt 0.250000 0.492213
vt 0.250000 0.927189
vt 0.430023 0.927189
vt 0.430023 0.992213
vt 0.250000 0.992213
vt 0.492213 0.927189
vt 0.467480 0.965850
vt 0.492213 0.992213
vt 0.446320 0.965850
vt 0.467480 0.943062
vt 0.446320 0.943062
vt 0.784165 0.007787
vt 0.805326 0.007787
vt 0.805326 0.030575
vt 0.784165 0.030575
vt 0.779283 0.796374
vt 0.779283 0.543894
vt 0.800444 0.543894
vt 0.800444 0.796374
vt 0.709070 0.260267
vt 0.709070 0.007787
vt 0.731858 0.007787
vt 0.731858 0.260267
vt 0.670708 0.260267
vt 0.670708 0.007787
vt 0.693496 0.007787
vt 0.693496 0.260267
vt 0.523353 0.069977
vt 0.507787 0.069977
vt 0.507787 0.007787
vt 0.523353 0.007787
vt 0.616773 0.492213
vt 0.601207 0.492213
vt 0.601207 0.427189
vt 0.616773 0.427189
vt 0.763710 0.796374
vt 0.742549 0.796374
vt 0.742549 0.543894
vt 0.763710 0.543894
vt 0.492213 0.492213
vt 0.430023 0.492213
vt 0.430023 0.427189
vt 0.492213 0.427189
vt 0.069977 0.992213
vt 0.069977 0.927189
vt 0.007787 0.927189
vt 0.032520 0.965850
vt 0.053680 0.965850
vt 0.007787 0.992213
vt 0.032520 0.943062
vt 0.053680 0.943062
vt 0.565682 0.775840
vt 0.565682 0.798628
vt 0.544521 0.798628
vt 0.544521 0.775840
vt 0.605671 0.760267
vt 0.584510 0.760267
vt 0.584510 0.507787
vt 0.605671 0.507787
vt 0.655134 0.528320
vt 0.632347 0.528320
vt 0.632347 0.275840
vt 0.655134 0.275840
vt 0.568936 0.760267
vt 0.546148 0.760267
vt 0.546148 0.507787
vt 0.568936 0.507787
s 1
usemtl tableBrown
f 9/1/1 5/2/1 1/3/1 10/4/1
f 10/5/2 1/6/2 3/7/2 11/8/2
f 4/9/3 8/10/3 16/11/3 15/12/3
f 1/13/4 5/14/4 7/15/4 3/16/4
f 26/17/1 25/18/1 5/2/1 9/1/1
f 3/16/4 7/15/4 47/19/4 45/20/4
f 11/8/2 3/7/2 45/21/2 46/22/2
f 7/15/4 27/23/4 73/24/4 47/19/4
f 5/14/4 25/25/4 27/23/4 7/15/4
f 24/26/5 26/27/5 9/28/5 12/29/5
f 46/30/5 41/31/5 12/29/5 11/32/5
f 2/33/5 6/34/5 9/28/5 10/35/5
f 4/36/5 2/33/5 10/35/5 11/32/5
f 8/37/5 4/36/5 11/32/5 12/29/5
f 6/34/5 8/37/5 12/29/5 9/28/5
f 16/38/5 13/39/5 14/40/5 15/41/5
f 6/42/1 2/43/1 14/44/1 13/45/1
f 8/46/6 6/47/6 13/48/6 16/49/6
f 2/50/2 4/51/2 15/52/2 14/53/2
f 41/31/5 59/54/5 24/26/5 12/29/5
f 29/55/1 30/56/1 17/57/1 21/58/1
f 30/59/6 31/60/6 19/61/6 17/62/6
f 20/63/3 35/64/3 36/65/3 28/66/3
f 17/67/4 19/68/4 23/69/4 21/70/4
f 26/17/1 29/55/1 21/58/1 25/18/1
f 19/68/4 66/71/4 69/72/4 23/69/4
f 31/60/6 67/73/6 66/74/6 19/61/6
f 23/69/4 69/72/4 73/24/4 27/23/4
f 21/70/4 23/69/4 27/23/4 25/25/4
f 24/26/5 32/75/5 29/76/5 26/27/5
f 67/77/5 31/78/5 32/75/5 62/79/5
f 18/80/5 30/81/5 29/76/5 22/82/5
f 20/83/5 31/78/5 30/81/5 18/80/5
f 28/84/5 32/75/5 31/78/5 20/83/5
f 22/82/5 29/76/5 32/75/5 28/84/5
f 36/85/5 35/86/5 34/87/5 33/88/5
f 22/89/1 33/90/1 34/91/1 18/92/1
f 28/93/2 36/94/2 33/95/2 22/96/2
f 18/97/6 34/98/6 35/99/6 20/100/6
f 62/79/5 32/75/5 24/26/5 59/54/5
f 49/101/3 50/102/3 37/103/3 42/104/3
f 50/105/2 51/106/2 39/107/2 37/108/2
f 40/109/1 55/110/1 56/111/1 48/112/1
f 37/113/4 39/114/4 44/115/4 42/116/4
f 71/117/3 49/101/3 42/104/3 70/118/3
f 39/114/4 45/20/4 47/19/4 44/115/4
f 51/106/2 46/22/2 45/21/2 39/107/2
f 44/115/4 47/19/4 73/24/4 72/119/4
f 42/116/4 44/115/4 72/119/4 70/120/4
f 68/121/5 52/122/5 49/123/5 71/124/5
f 46/30/5 51/125/5 52/122/5 41/31/5
f 38/126/5 50/127/5 49/123/5 43/128/5
f 40/129/5 51/125/5 50/127/5 38/126/5
f 48/130/5 52/122/5 51/125/5 40/129/5
f 43/128/5 49/123/5 52/122/5 48/130/5
f 56/131/5 55/132/5 54/133/5 53/134/5
f 43/135/3 53/136/3 54/137/3 38/138/3
f 48/139/6 56/140/6 53/141/6 43/142/6
f 38/143/2 54/144/2 55/145/2 40/146/2
f 41/31/5 52/122/5 68/121/5 59/54/5
f 75/147/3 63/148/3 57/149/3 76/150/3
f 76/151/6 57/152/6 60/153/6 77/154/6
f 61/155/1 74/156/1 82/157/1 81/158/1
f 57/159/4 63/160/4 65/161/4 60/162/4
f 71/117/3 70/118/3 63/148/3 75/147/3
f 60/162/4 65/161/4 69/72/4 66/71/4
f 77/154/6 60/153/6 66/74/6 67/73/6
f 65/161/4 72/119/4 73/24/4 69/72/4
f 63/160/4 70/120/4 72/119/4 65/161/4
f 68/121/5 71/124/5 75/163/5 78/164/5
f 67/77/5 62/79/5 78/164/5 77/165/5
f 58/166/5 64/167/5 75/163/5 76/168/5
f 61/169/5 58/166/5 76/168/5 77/165/5
f 74/170/5 61/169/5 77/165/5 78/164/5
f 64/167/5 74/170/5 78/164/5 75/163/5
f 82/171/5 79/172/5 80/173/5 81/174/5
f 64/175/3 58/176/3 80/177/3 79/178/3
f 74/179/2 64/180/2 79/181/2 82/182/2
f 58/183/6 61/184/6 81/185/6 80/186/6
f 62/79/5 59/54/5 68/121/5 78/164/5
